# xmcd
#
# Track frame offsets:
#	183
#	11735
#	33493
#	54530
#	67913
#	81208
#	92513
#	104425
#	120060
#	132858
#	142990
#	155595
#	167988
#	181780
#
# Disc length: 2625
#
# Revision: 1
# Processed by: cddbd v1.5.1PL0 Copyright (c) Steve Scherf et al.
# Submitted via: CDex 1.40Release
# Normalized: r0:DSETVAR1,TDELIM( - )
#
DISCID=ac0a3f0e
DTITLE=Various Artist - Every Day I Have The Blues
DYEAR=1992
DGENRE=Blues
TTITLE0=B.B. King - Every Day I Have The Blues
TTITLE1=Elmore James - Something Inside Of Me
TTITLE2=Mike Bloomfield - Women Lovin' Eachother
TTITLE3=Howlin' Wolf - Tail Dragger
TTITLE4=B.B. King - When My Heat Beats Like A Hammer
TTITLE5=Muddy Waters - Crawlin' Kingsnake
TTITLE6=Johnny Guitar Watson - One Room Country Shack
TTITLE7=Mike Bloomfield - Don't You Lie To Me
TTITLE8=Little Walter - Everything's Gonna Be Alright
TTITLE9=John Lee Hooker - Dimples
TTITLE10=B.B. King - Ten Long Years
TTITLE11=Elmore James - Happy Home
TTITLE12=Memphis Slim - My Baby
TTITLE13=Sonny Boy Williamson - Cross My Heart
EXTD=YEAR: 1992 ID3G: 0
EXTT0=
EXTT1=
EXTT2=
EXTT3=
EXTT4=
EXTT5=
EXTT6=
EXTT7=
EXTT8=
EXTT9=
EXTT10=
EXTT11=
EXTT12=
EXTT13=
PLAYORDER=
